# xmcd
#
# Track frame offsets: 
#        150
#        19964
#        28908
#        31014
#        33617
#        35658
#        37713
#        39652
#        41716
#        43977
#        45963
#        48453
#        50933
#        53461
#        68529
#        83222
#        97438
#        98901
#        102135
#        104577
#        108140
#        113142
#        117209
#        119822
#        121810
#        123345
#        130962
#        135404
#        140765
#        146942
#        148119
#        159788
#        183601
#        196962
#        230744
#        233774
#        248938
#        264715
#        271995
#        278952
#        285606
#
# Disc length: 4004 seconds
#
# Revision: 0
# Processed by: cddbd v1.5.2PL0 Copyright (c) Steve Scherf et al.
# Submitted via: ExactAudioCopy v0.95b3
#
DISCID=6b0fa229
DTITLE=Led Zeppelin  - Studio Sessions Ultimate [Disc 8]
DYEAR=1900
DGENRE=
TTITLE0=Untitled Instrumental
TTITLE1=Ten Years Gone
TTITLE2=Ten Years Gone
TTITLE3=Ten Years Gone
TTITLE4=Ten Years Gone
TTITLE5=Ten Years Gone
TTITLE6=Ten Years Gone
TTITLE7=Ten Years Gone
TTITLE8=Ten Years Gone
TTITLE9=Ten Years Gone
TTITLE10=Ten Years Gone
TTITLE11=Ten Years Gone
TTITLE12=Ten Years Gone
TTITLE13=Midnight Moonlight
TTITLE14=Midnight Moonlight
TTITLE15=Midnight Moonlight
TTITLE16=Midnight Moonlight
TTITLE17=Midnight Moonlight
TTITLE18=Midnight Moonlight
TTITLE19=Midnight Moonlight
TTITLE20=Midnight Moonlight
TTITLE21=Midnight Moonlight
TTITLE22=Midnight Moonlight
TTITLE23=Midnight Moonlight
TTITLE24=Midnight Moonlight
TTITLE25=Midnight Moonlight
TTITLE26=Midnight Moonlight
TTITLE27=Midnight Moonlight
TTITLE28=Midnight Moonlight
TTITLE29=Midnight Moonlight
TTITLE30=Midnight Moonlight
TTITLE31=Midnight Moonlight
TTITLE32=Midnight Moonlight
TTITLE33=Midnight Moonlight
TTITLE34=Midnight Moonlight
TTITLE35=Midnight Moonlight
TTITLE36=Midnight Moonlight
TTITLE37=Midnight Moonlight
TTITLE38=Midnight Moonlight
TTITLE39=Midnight Moonlight
TTITLE40=Midnight Moonlight
EXTD=
EXTT0=
EXTT1=
EXTT2=
EXTT3=
EXTT4=
EXTT5=
EXTT6=
EXTT7=
EXTT8=
EXTT9=
EXTT10=
EXTT11=
EXTT12=
EXTT13=
EXTT14=
EXTT15=
EXTT16=
EXTT17=
EXTT18=
EXTT19=
EXTT20=
EXTT21=
EXTT22=
EXTT23=
EXTT24=
EXTT25=
EXTT26=
EXTT27=
EXTT28=
EXTT29=
EXTT30=
EXTT31=
EXTT32=
EXTT33=
EXTT34=
EXTT35=
EXTT36=
EXTT37=
EXTT38=
EXTT39=
EXTT40=
PLAYORDER=
